HIERARCHY
ROOT joint_Root
{
	OFFSET 0.0 0.0 0.0
	CHANNELS 6 Xposition Yposition Zposition Zrotation Xrotation Yrotation 
	JOINT Hips
	{
		OFFSET -0.726466 93.3139 -2.00062
		CHANNELS 6 Xposition Yposition Zposition Zrotation Xrotation Yrotation 
		JOINT Spine
		{
			OFFSET 15.7357 0.0 0.0
			CHANNELS 6 Xposition Yposition Zposition Zrotation Xrotation Yrotation 
			JOINT Chest
			{
				OFFSET 8.98455 -0.406207 0.0
				CHANNELS 6 Xposition Yposition Zposition Zrotation Xrotation Yrotation 
				JOINT Neck
				{
					OFFSET 16.3773 0.0 0.0
					CHANNELS 6 Xposition Yposition Zposition Zrotation Xrotation Yrotation 
					JOINT Head
					{
						OFFSET 6.45672 0.0 0.0
						CHANNELS 6 Xposition Yposition Zposition Zrotation Xrotation Yrotation 
						End Site
						{
							OFFSET 0.0 0.0 0.0
						}
					}
				}
				JOINT Shoulder_L
				{
					OFFSET 12.9942 -0.242716 4.98039
					CHANNELS 6 Xposition Yposition Zposition Zrotation Xrotation Yrotation 
					JOINT UpperArm_L
					{
						OFFSET 5.34809 0.0 0.0
						CHANNELS 6 Xposition Yposition Zposition Zrotation Xrotation Yrotation 
						JOINT LowerArm_L
						{
							OFFSET 24.3286 1.87007e-05 0.0
							CHANNELS 6 Xposition Yposition Zposition Zrotation Xrotation Yrotation 
							JOINT Hand_L
							{
								OFFSET 22.2916 0.0 0.0
								CHANNELS 6 Xposition Yposition Zposition Zrotation Xrotation Yrotation 
								End Site
								{
									OFFSET 0.0 0.0 0.0
								}
							}
						}
					}
				}
				JOINT Shoulder_R
				{
					OFFSET 12.9945 -0.242716 -4.98039
					CHANNELS 6 Xposition Yposition Zposition Zrotation Xrotation Yrotation 
					JOINT UpperArm_R
					{
						OFFSET -5.34813 0.0 0.0
						CHANNELS 6 Xposition Yposition Zposition Zrotation Xrotation Yrotation 
						JOINT LowerArm_R
						{
							OFFSET -24.3289 0.000322201 0.0
							CHANNELS 6 Xposition Yposition Zposition Zrotation Xrotation Yrotation 
							JOINT Hand_R
							{
								OFFSET -22.2915 -0.000108084 0.0
								CHANNELS 6 Xposition Yposition Zposition Zrotation Xrotation Yrotation 
								End Site
								{
									OFFSET 0.0 0.0 0.0
								}
							}
						}
					}
				}
			}
		}
		JOINT UpperLeg_L
		{
			OFFSET -2.19248 -6.46944 0.0
			CHANNELS 6 Xposition Yposition Zposition Zrotation Xrotation Yrotation 
			JOINT LowerLeg_L
			{
				OFFSET 39.0811 0.0 -1.23785e-05
				CHANNELS 6 Xposition Yposition Zposition Zrotation Xrotation Yrotation 
				JOINT Foot_L
				{
					OFFSET 40.9854 0.0 -1.26872e-05
					CHANNELS 6 Xposition Yposition Zposition Zrotation Xrotation Yrotation 
					JOINT Toes_L
					{
						OFFSET 11.7543 0.0 0.0
						CHANNELS 6 Xposition Yposition Zposition Zrotation Xrotation Yrotation 
						End Site
						{
							OFFSET 0.0 0.0 0.0
						}
					}
				}
			}
		}
		JOINT UpperLeg_R
		{
			OFFSET -2.19251 6.46944 0.0
			CHANNELS 6 Xposition Yposition Zposition Zrotation Xrotation Yrotation 
			JOINT LowerLeg_R
			{
				OFFSET -39.0811 -0.00228153 -0.0401928
				CHANNELS 6 Xposition Yposition Zposition Zrotation Xrotation Yrotation 
				JOINT Foot_R
				{
					OFFSET -40.9854 0.0 0.0
					CHANNELS 6 Xposition Yposition Zposition Zrotation Xrotation Yrotation 
					JOINT Toes_R
					{
						OFFSET -11.7543 0.0 0.0
						CHANNELS 6 Xposition Yposition Zposition Zrotation Xrotation Yrotation 
						End Site
						{
							OFFSET 0.0 0.0 0.0
						}
					}
				}
			}
		}
	}
}
MOTION
Frames:	9
Frame Time:	0.0333333
0.000000 0.000000 0.000000 0.000000 0.000000 -0.000000 -0.297987 91.903200 -0.845672 87.955400 -1.424890 5.189790 15.735700 0.000005 -0.000001 85.879700 84.967200 -85.379300 8.984550 -0.406207 -0.000000 2.277140 -0.746645 1.014550 16.377300 -0.000001 -0.000001 1.387840 -1.889640 0.370778 6.456720 -0.000001 -0.000000 1.176730 -1.635060 0.422282 12.994200 -0.242716 4.980390 -89.739000 -0.809529 -72.126400 5.348090 -0.000007 -0.000001 -67.982600 35.760400 -14.438100 24.328600 0.000019 0.000005 0.617154 1.453950 -23.002700 22.291600 -0.000001 0.000005 7.930730 5.538680 -8.181930 12.994500 -0.242716 -4.980390 88.325800 5.315720 -72.489300 -5.348130 -0.000001 -0.000004 -67.227500 31.987500 -14.414500 -24.328900 0.000322 -0.000009 0.456135 1.442600 -17.586600 -22.291500 -0.000108 -0.000004 10.572700 5.491280 -6.185630 -2.192480 -6.469440 -0.000000 -168.897000 -17.490000 -1.672860 39.081100 -0.000007 -0.000012 -0.200187 0.463799 23.346600 40.985400 -0.000006 -0.000013 -6.905560 -2.730160 -64.244400 11.754300 -0.000000 0.000003 -0.000119 -0.001190 -16.623000 -2.192510 6.469440 -0.000001 172.696000 21.949800 -178.931000 -39.081100 -0.002282 -0.040193 -0.070574 0.201889 20.103600 -40.985400 0.000008 0.000006 -5.160450 1.294170 -63.156000 -11.754300 -0.000006 -0.000006 -0.003407 -0.045126 -18.408400
0.000000 0.000000 0.000000 0.000000 0.000000 -0.000000 -0.311026 91.909300 -0.801029 87.952500 -1.409690 5.055450 15.735700 0.000005 -0.000001 85.833200 85.025800 -85.355000 8.984550 -0.406207 -0.000000 2.159610 -0.745732 0.969556 16.377300 -0.000001 -0.000001 1.122110 -1.885440 0.422289 6.456720 -0.000001 -0.000000 0.878853 -1.634510 0.462134 12.994200 -0.242716 4.980390 -89.712400 -0.880393 -71.910700 5.348090 -0.000007 -0.000001 -68.270800 33.332400 -13.722600 24.328600 0.000019 0.000005 0.176845 0.408133 -23.423700 22.291600 -0.000001 0.000005 8.340670 5.540190 -8.250940 12.994500 -0.242716 -4.980390 88.354200 5.143560 -72.229300 -5.348130 -0.000001 -0.000004 -67.495500 29.630900 -14.054000 -24.328900 0.000322 -0.000009 0.192411 0.612832 -17.520000 -22.291500 -0.000108 -0.000004 10.668100 5.497150 -6.419050 -2.192480 -6.469440 -0.000000 -168.914000 -17.565600 -1.745770 39.081100 -0.000007 -0.000012 -0.198667 0.461694 23.282500 40.985400 -0.000006 -0.000013 -6.909670 -2.687870 -64.232800 11.754300 -0.000000 0.000003 -0.000118 -0.001189 -16.623000 -2.192510 6.469440 -0.000001 172.762000 21.968600 -179.029000 -39.081100 -0.002282 -0.040193 -0.066769 0.191748 20.079200 -40.985400 0.000008 0.000006 -5.033030 1.280040 -63.185400 -11.754300 -0.000006 -0.000006 -0.003570 -0.046888 -18.480200
0.000000 0.000000 0.000000 0.000000 0.000000 -0.000000 -0.330178 91.919200 -0.775017 87.922700 -1.451090 4.932930 15.735700 0.000005 -0.000001 85.972800 85.092000 -85.511500 8.984550 -0.406207 -0.000000 2.028870 -0.711998 0.934470 16.377300 -0.000001 -0.000001 0.886507 -1.894620 0.447992 6.456720 -0.000001 -0.000000 0.582495 -1.676350 0.525494 12.994200 -0.242716 4.980390 -89.670100 -0.997369 -71.695200 5.348090 -0.000007 -0.000001 -68.383500 30.013000 -13.098300 24.328600 0.000019 0.000005 -0.291625 -0.669016 -23.559900 22.291600 -0.000001 0.000005 8.823130 5.539120 -8.202610 12.994500 -0.242716 -4.980390 88.400200 4.931610 -72.001700 -5.348130 -0.000001 -0.000004 -67.518400 26.910500 -13.783800 -24.328900 0.000322 -0.000009 -0.130160 -0.413251 -17.351100 -22.291500 -0.000108 -0.000004 11.155200 5.498250 -6.462660 -2.192480 -6.469440 -0.000000 -168.901000 -17.590600 -1.812250 39.081100 -0.000007 -0.000012 -0.198153 0.462109 23.210100 40.985400 -0.000006 -0.000013 -6.936940 -2.726160 -64.210700 11.754300 -0.000000 0.000003 -0.000123 -0.001231 -16.624600 -2.192510 6.469440 -0.000001 172.889000 21.924000 -179.154000 -39.081100 -0.002282 -0.040193 -0.062840 0.181228 20.055700 -40.985400 0.000008 0.000006 -4.850500 1.216320 -63.196800 -11.754300 -0.000006 -0.000006 -0.003455 -0.045652 -18.429900
0.000000 0.000000 0.000000 0.000000 0.000000 -0.000000 -0.341495 91.923500 -0.729168 87.943500 -1.486620 4.866450 15.735700 0.000005 -0.000001 86.198100 85.137300 -85.770300 8.984550 -0.406207 -0.000000 1.940780 -0.666194 0.866079 16.377300 -0.000001 -0.000001 0.588585 -1.906680 0.458837 6.456720 -0.000001 -0.000000 0.346362 -1.744270 0.585274 12.994200 -0.242716 4.980390 -89.633600 -1.095320 -71.502700 5.348090 -0.000007 -0.000001 -67.679300 26.733400 -12.962700 24.328600 0.000019 0.000005 -1.123720 -2.613900 -23.275700 22.291600 -0.000001 0.000005 9.261910 5.540880 -8.282680 12.994500 -0.242716 -4.980390 88.462100 4.691020 -71.826000 -5.348130 -0.000001 -0.000004 -67.166600 23.664300 -13.612000 -24.328900 0.000322 -0.000009 -0.465010 -1.502810 -17.160900 -22.291500 -0.000108 -0.000004 11.321900 5.507200 -6.826510 -2.192480 -6.469440 -0.000000 -168.940000 -17.519500 -1.789820 39.081100 -0.000007 -0.000012 -0.196899 0.461106 23.123400 40.985400 -0.000006 -0.000013 -6.976280 -2.824170 -64.222600 11.754300 -0.000000 0.000003 -0.000118 -0.001188 -16.623000 -2.192510 6.469440 -0.000001 172.884000 21.902300 -179.160000 -39.081100 -0.002282 -0.040193 -0.062773 0.181688 19.990300 -40.985400 0.000008 0.000006 -4.911990 1.253290 -63.193600 -11.754300 -0.000006 -0.000006 -0.003471 -0.045816 -18.436600
0.000000 0.000000 0.000000 0.000000 0.000000 -0.000000 -0.370130 91.934500 -0.703107 87.893400 -1.498940 4.709820 15.735700 0.000005 -0.000001 86.246700 85.218800 -85.828400 8.984550 -0.406207 -0.000000 1.778560 -0.647445 0.845907 16.377300 -0.000001 -0.000001 0.290009 -1.900200 0.505495 6.456720 -0.000001 -0.000000 0.089400 -1.749900 0.583152 12.994200 -0.242716 4.980390 -89.593600 -1.204090 -71.349500 5.348090 -0.000007 -0.000001 -66.474100 22.792200 -13.012200 24.328600 0.000019 0.000005 -1.641880 -3.893760 -22.886000 22.291600 -0.000001 0.000005 9.156990 5.540590 -8.269640 12.994500 -0.242716 -4.980390 88.528200 4.433030 -71.612800 -5.348130 -0.000001 -0.000004 -66.266800 20.289100 -13.728600 -24.328900 0.000322 -0.000009 -0.854890 -2.808380 -16.919400 -22.291500 -0.000108 -0.000004 11.482500 5.507040 -6.819890 -2.192480 -6.469440 -0.000000 -168.915000 -17.541100 -1.909040 39.081100 -0.000007 -0.000012 -0.197039 0.462840 23.060600 40.985400 -0.000006 -0.000013 -7.004620 -2.858070 -64.194000 11.754300 -0.000000 0.000003 -0.000124 -0.001233 -16.624600 -2.192510 6.469440 -0.000001 173.043000 21.917200 -179.300000 -39.081100 -0.002282 -0.040193 -0.057701 0.168018 19.960600 -40.985400 0.000008 0.000006 -4.643260 1.213290 -63.216800 -11.754300 -0.000006 -0.000006 -0.003473 -0.045845 -18.437700
0.000000 0.000000 0.000000 0.000000 0.000000 -0.000000 -0.383960 91.949100 -0.694574 87.906000 -1.510580 4.600320 15.735700 0.000005 -0.000001 86.241700 85.284700 -85.852800 8.984550 -0.406207 -0.000000 1.646590 -0.638559 0.786425 16.377300 -0.000001 -0.000001 0.004731 -1.861890 0.521325 6.456720 -0.000001 -0.000000 -0.239802 -1.744690 0.646596 12.994200 -0.242716 4.980390 -89.536900 -1.357000 -71.155500 5.348090 -0.000007 -0.000001 -64.816500 18.506300 -13.414500 24.328600 0.000019 0.000005 -1.643700 -4.033030 -22.197000 22.291600 -0.000001 0.000005 9.491760 5.535610 -8.044400 12.994500 -0.242716 -4.980390 88.604900 4.152560 -71.410600 -5.348130 -0.000001 -0.000004 -64.882900 16.558800 -14.122800 -24.328900 0.000322 -0.000009 -1.069110 -3.603540 -16.521700 -22.291500 -0.000108 -0.000004 11.664700 5.506980 -6.817250 -2.192480 -6.469440 -0.000000 -168.961000 -17.534100 -1.949000 39.081100 -0.000007 -0.000012 -0.193273 0.456753 22.935700 40.985400 -0.000006 -0.000013 -7.018590 -2.902040 -64.144000 11.754300 -0.000000 0.000003 -0.000114 -0.001153 -16.621700 -2.192510 6.469440 -0.000001 173.100000 21.948800 -179.401000 -39.081100 -0.002282 -0.040193 -0.054637 0.160004 19.912100 -40.985400 0.000008 0.000006 -4.538100 1.189330 -63.195300 -11.754300 -0.000006 -0.000006 -0.003620 -0.047428 -18.502200
0.000000 0.000000 0.000000 0.000000 0.000000 -0.000000 -0.396819 91.963300 -0.693042 87.868300 -1.488480 4.411700 15.735700 0.000005 -0.000001 85.946300 85.381400 -85.565400 8.984550 -0.406207 -0.000000 1.450440 -0.673633 0.769626 16.377300 -0.000001 -0.000001 -0.298633 -1.838230 0.554785 6.456720 -0.000001 -0.000000 -0.577063 -1.764410 0.653124 12.994200 -0.242716 4.980390 -89.457300 -1.572100 -70.952900 5.348090 -0.000007 -0.000001 -62.989200 13.414100 -13.952400 24.328600 0.000019 0.000005 -1.753850 -4.480730 -21.403000 22.291600 -0.000001 0.000005 9.460660 5.528600 -7.733380 12.994500 -0.242716 -4.980390 88.696200 3.833290 -71.199700 -5.348130 -0.000001 -0.000004 -63.194300 12.326500 -14.705800 -24.328900 0.000322 -0.000009 -1.235310 -4.286380 -16.081100 -22.291500 -0.000108 -0.000004 12.165200 5.507440 -6.836070 -2.192480 -6.469440 -0.000000 -168.977000 -17.536100 -2.119030 39.081100 -0.000007 -0.000012 -0.193124 0.458039 22.862200 40.985400 -0.000006 -0.000013 -7.026940 -2.916820 -64.097600 11.754300 -0.000000 0.000003 -0.000115 -0.001163 -16.622000 -2.192510 6.469440 -0.000001 173.250000 22.001300 -179.580000 -39.081100 -0.002282 -0.040193 -0.048994 0.144907 19.850900 -40.985400 0.000008 0.000006 -4.361970 1.151490 -63.172800 -11.754300 -0.000006 -0.000006 -0.003718 -0.048474 -18.544800
0.000000 0.000000 0.000000 0.000000 0.000000 -0.000000 -0.403838 91.972900 -0.677264 87.852100 -1.519060 4.251090 15.735700 0.000005 -0.000001 85.948000 85.469300 -85.593300 8.984550 -0.406207 -0.000000 1.274870 -0.660087 0.716092 16.377300 -0.000001 -0.000001 -0.581605 -1.886760 0.597479 6.456720 -0.000001 -0.000000 -1.036270 -1.870270 0.770074 12.994200 -0.242716 4.980390 -89.313600 -1.962630 -70.720400 5.348090 -0.000007 -0.000001 -61.446000 7.137980 -14.743000 24.328600 0.000019 0.000005 -1.718600 -4.634420 -20.374000 22.291600 -0.000001 0.000005 9.789380 5.519080 -7.324640 12.994500 -0.242716 -4.980390 88.821800 3.417230 -70.963800 -5.348130 -0.000001 -0.000004 -61.403800 7.612850 -15.488000 -24.328900 0.000322 -0.000009 -1.407310 -5.075530 -15.509300 -22.291500 -0.000108 -0.000004 12.773400 5.507640 -6.843940 -2.192480 -6.469440 -0.000000 -169.017000 -17.503500 -2.244550 39.081100 -0.000007 -0.000012 -0.192266 0.457394 22.799800 40.985400 -0.000006 -0.000013 -7.049100 -3.007670 -64.083300 11.754300 -0.000000 0.000003 -0.000116 -0.001171 -16.622300 -2.192510 6.469440 -0.000001 173.341000 21.945600 -179.700000 -39.081100 -0.002282 -0.040193 -0.049096 0.146001 19.749400 -40.985400 0.000008 0.000006 -4.381570 1.117620 -63.132500 -11.754300 -0.000006 -0.000006 -0.003560 -0.046778 -18.475700
0.000000 0.000000 0.000000 0.000000 0.000000 -0.000000 -0.412386 91.990000 -0.675113 87.811400 -1.530230 4.032010 15.735700 0.000005 -0.000001 86.045700 85.591400 -85.712600 8.984550 -0.406207 -0.000000 1.032260 -0.627363 0.671431 16.377300 -0.000001 -0.000001 -0.923426 -1.956240 0.694567 6.456720 -0.000001 -0.000000 -1.439000 -2.122320 0.894039 12.994200 -0.242716 4.980390 -89.115700 -2.480110 -70.368600 5.348090 -0.000007 -0.000001 -60.084600 0.384275 -15.925200 24.328600 0.000019 0.000005 -1.753200 -4.988960 -19.391000 22.291600 -0.000001 0.000005 10.804000 5.510900 -6.980200 12.994500 -0.242716 -4.980390 88.992900 2.882050 -70.728500 -5.348130 -0.000001 -0.000004 -59.484900 2.671490 -16.358300 -24.328900 0.000322 -0.000009 -1.517660 -5.688510 -14.955300 -22.291500 -0.000108 -0.000004 13.611800 5.506960 -6.816640 -2.192480 -6.469440 -0.000000 -169.038000 -17.547800 -2.415920 39.081100 -0.000007 -0.000012 -0.189947 0.453975 22.705100 40.985400 -0.000006 -0.000013 -7.055390 -3.020820 -64.038800 11.754300 -0.000000 0.000003 -0.000110 -0.001119 -16.620400 -2.192510 6.469440 -0.000001 173.510000 21.937500 -179.903000 -39.081100 -0.002282 -0.040193 -0.043436 0.130890 19.658300 -40.985400 0.000008 0.000006 -4.194330 1.078390 -63.096700 -11.754300 -0.000006 -0.000006 -0.003460 -0.045705 -18.432000
